{"title":"Let Us Be Gay (Robert Z. Leonard, 1930) ","uid":7575880,"size":984201216,"categoryP":"video","categoryS":"movies","magnet":"?xt=urn:btih:b184b03a560daed4057060192472974e43f9eba6&amp;dn=Let+Us+Be+Gay+%28Robert+Z.+Leonard%2C+1930%29+&amp;tr=udp%3A%2F%2Ftracker.openbittorrent.com%3A80&amp;tr=udp%3A%2F%2Fopen.demonii.com%3A1337&amp;tr=udp%3A%2F%2Ftracker.coppersurfer.tk%3A6969&amp;tr=udp%3A%2F%2Fexodus.desync.com%3A6969","seeders":0,"leechers":0,"uploader":"moonflux","files":-1,"time":1346112485,"description":"Format : AVI \nFormat/Info : Audio Video Interleave \nFile size : 939 MiB \nDuration : 1h 18mn \nOverall bit rate : 1 669 Kbps \nWriting application : VirtualDubMod 1.5.10.3 | www.virtualdub-fr.org || (build 2550/release) \nWriting library : VirtualDubMod build 2550/release \n\nVideo \nID : 0 \nFormat : MPEG-4 Visual \nFormat profile : Simple@L3 \nFormat settings, BVOP : No \nFormat settings, QPel : No \nFormat settings, GMC : No warppoints \nFormat settings, Matrix : Default (H.263) \nCodec ID : XVID \nCodec ID/Hint : XviD \nDuration : 1h 18mn \nBit rate : 1 499 Kbps \nWidth : 640 pixels \nHeight : 480 pixels \nDisplay aspect ratio : 4:3 \nFrame rate : 23.976 fps \nColor space : YUV \nChroma subsampling : 4:2:0 \nBit depth : 8 bits \nScan type : Progressive \nBits/(Pixel*Frame) : 0.204 \nStream size : 843 MiB (90%) \nWriting library : XviD 1.1.2 (UTC 2006-11-01) \n\nAudio \nID : 1 \nFormat : MPEG Audio \nFormat version : Version 1 \nFormat profile : Layer 3 \nMode : Joint stereo \nMode extension : MS Stereo \nCodec ID : 55 \nCodec ID/Hint : MP3 \nDuration : 1h 18mn \nBit rate mode : Constant \nBit rate : 160 Kbps \nChannel(s) : 2 channels \nSampling rate : 48.0 KHz \nStream size : 90.0 MiB (10%) \nAlignment : Split accross interleaves \nInterleave, duration : 42 ms (1.00 video frame) \nInterleave, preload duration : 500 ms","torrent":{"xt":"urn:btih:b184b03a560daed4057060192472974e43f9eba6","amp;dn":"Let+Us+Be+Gay+%28Robert+Z.+Leonard%2C+1930%29+","amp;tr":["udp%3A%2F%2Ftracker.openbittorrent.com%3A80","udp%3A%2F%2Fopen.demonii.com%3A1337","udp%3A%2F%2Ftracker.coppersurfer.tk%3A6969","udp%3A%2F%2Fexodus.desync.com%3A6969"],"infoHash":"b184b03a560daed4057060192472974e43f9eba6","infoHashBuffer":{"type":"Buffer","data":[177,132,176,58,86,13,174,212,5,112,96,25,36,114,151,78,67,249,235,166]},"announce":[],"urlList":[]}}